# xmcd
#
# Track frame offsets:
#	150
#	31328
#	55314
#	81700
#	105687
#	135670
#	169650
#	202032
#	222022
#	246008
#	274791
#
# Disc length: 4090 seconds
#
# Revision: 0
# Processed by: cddbd v1.4PL0 Copyright (c) Steve Scherf et al.
# Submitted via: audiograbber 1.81.03
#
DISCID=a00ff80b
DTITLE=Browne Raitt Colvin and Hornsby - Live At Red Rocks Disc 02
DYEAR=1900
DGENRE=
TTITLE0=World In Motion
TTITLE1=I Believe Im In Love
TTITLE2=Nick Of Time
TTITLE3=The Facts About Jimmy
TTITLE4=Sunny Came Home
TTITLE5=A Night On The Town
TTITLE6=Your Bright Blue Eyes
TTITLE7=Something To Talk About
TTITLE8=Diamond In The Rough
TTITLE9=I Cant Make You Love Me
TTITLE10=The Pretenders
EXTD=
EXTT0=
EXTT1=
EXTT2=
EXTT3=
EXTT4=
EXTT5=
EXTT6=
EXTT7=
EXTT8=
EXTT9=
EXTT10=
PLAYORDER=
